<?xml version="1.0" encoding="UTF-8"?>
<svg version="1.1" xmlns="http://www.w3.org/2000/svg" width="167" height="191" fill="none">
<path d="M0 0 C55.11 0 110.22 0 167 0 C167 63.03 167 126.06 167 191 C111.89 191 56.78 191 0 191 C0 127.97 0 64.94 0 0 Z " fill="#6C6D71" transform="translate(0,0)"/>
<path d="M0 0 C34.65 0 69.3 0 105 0 C105 63.03 105 126.06 105 191 C49.89 191 -5.22 191 -62 191 C-62 164.93 -62 138.86 -62 112 C-61.34 112 -60.68 112 -60 112 C-57 117.75 -57 117.75 -57 120 C-56.34 120 -55.68 120 -55 120 C-54.27296875 121.55847656 -54.27296875 121.55847656 -53.53125 123.1484375 C-47.05197546 136.75050414 -38.62143153 151.00146399 -24 157 C-22.44477307 153.32586128 -21.29687775 149.67798336 -20.3125 145.8125 C-20.04050781 144.76707031 -19.76851562 143.72164062 -19.48828125 142.64453125 C-18.73188974 140.0344035 -18.73188974 140.0344035 -20 138 C-22.25515802 137.49851675 -22.25515802 137.49851675 -24.875 137.1875 C-29.71210457 136.28789543 -29.71210457 136.28789543 -32.1875 133.8125 C-33.24872286 130.13903624 -32.95588093 127.68696929 -32 124 C-30.625 122.0625 -30.625 122.0625 -29 121 C-28.01 121 -27.02 121 -26 121 C-26.33 120.01 -26.66 119.02 -27 118 C-27.73605469 118.03480469 -28.47210938 118.06960937 -29.23046875 118.10546875 C-33.41898767 118.2216628 -37.09241235 118.2722763 -41.125 117.0625 C-43.67879262 114.25332812 -43.61635215 111.98071679 -43.8203125 108.2734375 C-43.92392816 105.80233735 -43.92392816 105.80233735 -45.0625 102.8125 C-46 100 -46 100 -45.875 96.875 C-45.6819743 93.85346502 -45.6819743 93.85346502 -48.0625 91.9375 C-50 90 -50 90 -50.125 87.75 C-49 85 -49 85 -47.58203125 83.5 C-42.97420307 78.5966579 -42.52374108 74.74280145 -42.6875 68.25 C-42.74979873 66.77586234 -42.8160249 65.30188391 -42.88671875 63.828125 C-42.97850037 60.72653927 -42.82866659 58.87739212 -42 56 C-42.99 56 -43.98 56 -45 56 C-50.76895245 65.59158356 -55.95194822 74.84507721 -58 86 C-58.66 85.67 -59.32 85.34 -60 85 C-58.81742834 75.77594106 -55.13114339 67.26228677 -51 59 C-50.34 59 -49.68 59 -49 59 C-48.731875 58.030625 -48.46375 57.06125 -48.1875 56.0625 C-47.795625 55.051875 -47.40375 54.04125 -47 53 C-44 52 -44 52 -41.8125 52.9375 C-40.9153125 53.4634375 -40.9153125 53.4634375 -40 54 C-40.08378906 55.08539063 -40.16757812 56.17078125 -40.25390625 57.2890625 C-40.35714097 58.73434861 -40.45998483 60.17966267 -40.5625 61.625 C-40.61857422 62.33785156 -40.67464844 63.05070312 -40.73242188 63.78515625 C-40.96442458 67.15692885 -41.00479459 69.97258396 -40.41796875 73.328125 C-40 76 -40 76 -41.75 79.125 C-43.06355154 80.80342697 -44.40558302 82.46152551 -45.8125 84.0625 C-47.24689492 85.99512152 -47.24689492 85.99512152 -46.875 88.625 C-46.1432514 91.32987773 -46.1432514 91.32987773 -43 93 C-43.20625 93.680625 -43.4125 94.36125 -43.625 95.0625 C-44.10519629 98.82403759 -43.10327097 101.38372293 -42 105 C-41.80772083 106.4342987 -41.64089445 107.87224558 -41.5 109.3125 C-41.37521316 113.02857707 -41.37521316 113.02857707 -39 115 C-36.25514407 115.14507695 -33.61519457 115.18652423 -30.875 115.125 C-30.12089844 115.11597656 -29.36679687 115.10695313 -28.58984375 115.09765625 C-26.72642746 115.0740687 -24.86317407 115.03819719 -23 115 C-22.34 117.97 -21.68 120.94 -21 124 C-22.11375 123.79375 -23.2275 123.5875 -24.375 123.375 C-26.169375 123.189375 -26.169375 123.189375 -28 123 C-30.21370051 124.78657757 -30.21370051 124.78657757 -30.1953125 127.1640625 C-30.17210938 127.97617188 -30.14890625 128.78828125 -30.125 129.625 C-30.08375 131.06875 -30.0425 132.5125 -30 134 C-25.71 134 -21.42 134 -17 134 C-16.49373277 143.87221105 -18.60744851 150.31382837 -23 159 C-20.7258754 159.80843695 -20.7258754 159.80843695 -18 160 C-15.59475356 158.67892648 -15.59475356 158.67892648 -13.4375 156.6875 C-10.71421031 154.36066843 -8.27994174 152.46518939 -5 151 C-4.53851563 151.49628906 -4.07703125 151.99257812 -3.6015625 152.50390625 C5.07029233 161.9617545 5.07029233 161.9617545 16.609375 166.3984375 C19.04044407 166.38330636 21.47233176 166.30443986 23.8984375 166.1484375 C26.66325132 166.01611644 28.41434414 166.14916453 31 167 C31.61617188 167.19078125 32.23234375 167.3815625 32.8671875 167.578125 C38.96884685 169.6199254 45.01609612 171.80200279 51.05859375 174.01171875 C53.79880946 175.10616427 53.79880946 175.10616427 56 175 C57.71375252 167.81734633 58.35251148 161.00065496 58.3125 153.625 C58.31048584 152.61711426 58.30847168 151.60922852 58.30639648 150.57080078 C58.20751218 143.23678305 57.2836087 136.98097996 55 130 C54.36082787 127.20101096 54 124.88107767 54 122 C55.12535156 121.8040625 56.25070313 121.608125 57.41015625 121.40625 C72.41861097 118.57161197 85.97785769 113.04534682 97 102 C98.25357058 99.88244909 98.25357058 99.88244909 99 98 C84.42811939 83.84230721 69.77817292 77.74378323 50 76 C49.67 75.01 49.34 74.02 49 73 C49.61488281 72.94328125 50.22976562 72.8865625 50.86328125 72.828125 C53.23075574 72.17906806 53.23075574 72.17906806 54.23046875 69.671875 C54.54628906 68.70765625 54.86210938 67.7434375 55.1875 66.75 C55.51105469 65.79609375 55.83460937 64.8421875 56.16796875 63.859375 C58.08895461 57.2576771 58.18335134 51.08698497 58.1875 44.25 C58.19974609 43.20328125 58.21199219 42.1565625 58.22460938 41.078125 C58.23651471 34.72861236 57.62523406 29.14120063 56 23 C46.55065266 24.29998418 38.27964054 28.50518253 30.3515625 33.66796875 C27.65578292 35.1949801 24.95804112 36.10065321 22 37 C21.69707031 36.23816406 21.39414063 35.47632813 21.08203125 34.69140625 C16.66883417 23.81457284 11.45249368 14.98676209 4.20703125 5.8203125 C2 3 2 3 0 0 Z " fill="white" transform="translate(62,0)"/>
<path d="M0 0 C1.81726718 7.00738226 2.38530463 13.52072767 2.375 20.75 C2.37483887 21.80606445 2.37467773 22.86212891 2.37451172 23.95019531 C2.23403401 33.56478518 0.45123714 41.41833561 -4 50 C-5.32 50 -6.64 50 -8 50 C-7.67 50.66 -7.34 51.32 -7 52 C-4.38438545 52.35215984 -1.81494137 52.60463546 0.8125 52.8125 C17.81646563 54.52727511 30.79033183 63.40698174 43 75 C38.34971446 85.64915389 24.71356394 91.55387587 14.671875 95.96484375 C8.84427211 98.22261388 3.26692777 99.32138091 -3 99 C-2.731875 100.0725 -2.46375 101.145 -2.1875 102.25 C-2.00832031 102.99636719 -1.82914063 103.74273437 -1.64453125 104.51171875 C-1.21890384 106.15489852 -0.73756209 107.78475335 -0.19921875 109.39453125 C1.98914032 116.47817695 2.29254924 123.26845012 2.3125 130.625 C2.31781738 131.59058838 2.32313477 132.55617676 2.32861328 133.55102539 C2.26682177 139.90742047 1.47478344 145.81890995 0 152 C-3.98753486 153.32917829 -5.59943731 152.28384057 -9.5 150.8125 C-10.42570801 150.47001221 -10.42570801 150.47001221 -11.37011719 150.12060547 C-14.35387539 149.01457042 -17.32494669 147.87564244 -20.296875 146.73828125 C-21.27140625 146.37089844 -22.2459375 146.00351563 -23.25 145.625 C-24.12140625 145.28726563 -24.9928125 144.94953125 -25.890625 144.6015625 C-28.03140465 143.7343007 -28.03140465 143.7343007 -30 145 C-30.33 144.34 -30.66 143.68 -31 143 C-32.75147284 142.14656586 -34.52725354 141.34282174 -36.3125 140.5625 C-47.06755816 135.3133129 -56.85880399 126.70347195 -60.98828125 115.26171875 C-64.50828521 103.30611059 -62.8492027 92.90390011 -57 82 C-49.53453394 69.76726697 -49.53453394 69.76726697 -46 68 C-44.515 68.99 -44.515 68.99 -43 70 C-41.04785375 70.31478577 -41.04785375 70.31478577 -39 70.25 C-38.319375 70.25515625 -37.63875 70.2603125 -36.9375 70.265625 C-34.67583993 70.09917603 -34.67583993 70.09917603 -32 68 C-31.63637182 65.79274927 -31.63637182 65.79274927 -31.8125 63.375 C-31.83957031 62.55773437 -31.86664063 61.74046875 -31.89453125 60.8984375 C-31.94673828 59.95871094 -31.94673828 59.95871094 -32 59 C-34.64 59 -37.28 59 -40 59 C-40 60.32 -40 61.64 -40 63 C-39.67 62.34 -39.34 61.68 -39 61 C-37.35 61.33 -35.7 61.66 -34 62 C-34.66 63.65 -35.32 65.3 -36 67 C-37.98 66.67 -39.96 66.34 -42 66 C-43.85512107 59.88421626 -41.72288465 55.24115762 -39.625 49.5 C-36.03079389 39.43341491 -34.84859802 31.28969237 -35.21484375 20.63671875 C-35.22902344 19.81300781 -35.24320313 18.98929688 -35.2578125 18.140625 C-35.29092529 17.01962402 -35.29092529 17.01962402 -35.32470703 15.87597656 C-35.21755371 15.2569043 -35.11040039 14.63783203 -35 14 C-32.64590293 12.43060195 -30.51380215 11.24389865 -28 10 C-26.23945192 9.04467956 -24.47903026 8.0891219 -22.72021484 7.13061523 C-5.85487608 -2.01261365 -5.85487608 -2.01261365 0 0 Z " fill="white" transform="translate(119,23)"/>
<path d="M0 0 C18.15 0 36.3 0 55 0 C59.1240673 9.6228237 59.1240673 9.6228237 59.1328125 15.3359375 C59.13474609 16.56183594 59.13474609 16.56183594 59.13671875 17.8125 C59.13285156 18.658125 59.12898438 19.50375 59.125 20.375 C59.13080078 21.63183594 59.13080078 21.63183594 59.13671875 22.9140625 C59.12968189 27.38950693 58.90387448 31.59540529 58 36 C56.85402344 35.95359375 55.70804688 35.9071875 54.52734375 35.859375 C52.99742209 35.82183091 51.46747199 35.78543359 49.9375 35.75 C49.18533203 35.71648438 48.43316406 35.68296875 47.65820312 35.6484375 C40.51466327 35.52473984 36.5386835 37.57169404 31.3046875 42.578125 C29.67735207 44.36767071 28.0523709 46.15935996 26.4296875 47.953125 C24 50 24 50 21.3203125 50.421875 C19 50 19 50 17 48 C17.375 45.375 17.375 45.375 18 43 C19.32 43.33 20.64 43.66 22 44 C22 43.34 22 42.68 22 42 C20.00045254 41.95745644 17.99958364 41.95919217 16 42 C14.68348662 43.09701184 14.68348662 43.09701184 14.8125 45.8125 C14.99217561 48.86698544 15.42335596 50.43795344 17 53 C16.34 53 15.68 53 15 53 C14.34 54.98 13.68 56.96 13 59 C12.34 59 11.68 59 11 59 C10.70996094 59.92232422 10.70996094 59.92232422 10.4140625 60.86328125 C10.15367188 61.67152344 9.89328125 62.47976562 9.625 63.3125 C9.36976562 64.11300781 9.11453125 64.91351563 8.8515625 65.73828125 C8 68 8 68 6 71 C5.33703519 72.97730645 5.33703519 72.97730645 4.875 75.0625 C4.70742187 75.75472656 4.53984375 76.44695312 4.3671875 77.16015625 C3.93476143 79.0141991 3.93476143 79.0141991 4 81 C4.268125 80.22398438 4.53625 79.44796875 4.8125 78.6484375 C8.01541017 69.81936274 12.15548827 62.01808765 17 54 C18.32 54.66 19.64 55.32 21 56 C20.82726562 56.49242187 20.65453125 56.98484375 20.4765625 57.4921875 C19.93336013 60.35067868 20.10592496 62.99711687 20.26757812 65.88964844 C20.65195859 73.88825654 20.14654384 78.72722544 14.53125 84.921875 C12.65893713 87.46287104 12.69793372 88.9146087 13 92 C13.64582031 92.2165625 14.29164062 92.433125 14.95703125 92.65625 C17 94 17 94 17.57421875 96.53125 C17.61160156 97.5109375 17.64898438 98.490625 17.6875 99.5 C17.76839782 103.39771356 17.76839782 103.39771356 19 107 C19.19131856 109.04073128 19.31667294 111.07827865 19.42578125 113.125 C19.83912032 115.13938384 19.83912032 115.13938384 21.68359375 116.2421875 C24.4879262 117.1596251 26.80435538 117.1951344 29.75 117.125 C30.73484375 117.10695313 31.7196875 117.08890625 32.734375 117.0703125 C33.48203125 117.04710938 34.2296875 117.02390625 35 117 C35.33 118.32 35.66 119.64 36 121 C33.525 121.495 33.525 121.495 31 122 C30.7763663 123.41433206 30.57173524 124.83167618 30.375 126.25 C30.25898438 127.03890625 30.14296875 127.8278125 30.0234375 128.640625 C29.99565784 131.43711059 30.30692461 132.76731871 32 135 C34.34778923 135.7323819 34.34778923 135.7323819 37 135.9375 C41.78369661 136.7613204 41.78369661 136.7613204 43.8125 139 C44.21388818 145.42221086 41.65344481 151.78079313 38 157 C29.14772654 155.53815668 21.11410455 145.88005282 16 139 C14.44410695 136.62590402 12.98547707 134.20577268 11.5625 131.75 C11.04888916 130.86417236 11.04888916 130.86417236 10.52490234 129.96044922 C8.69725375 126.66919208 7.49884696 123.73783919 7 120 C6.34 120 5.68 120 5 120 C2 114.25 2 114.25 2 112 C1.34 112 0.68 112 0 112 C0 75.04 0 38.08 0 0 Z " fill="white" transform="translate(0,0)"/>
<path d="M0 0 C8.03391597 5.29896585 12.49957382 13.92890394 14.53515625 23.19140625 C15.16388203 28.34273095 15.28358458 33.43881263 15.3125 38.625 C15.31813965 39.59074951 15.3237793 40.55649902 15.32958984 41.55151367 C15.26562195 47.90764505 14.47476016 53.81900751 13 60 C7.43531477 61.85489508 1.20273707 58.34667055 -4 56 C-8.53709415 53.65393717 -12.78452771 50.87741508 -17 48 C-17.6496875 47.57976562 -18.299375 47.15953125 -18.96875 46.7265625 C-24.40633155 42.81483292 -26.94442619 36.16672144 -29 30 C-29.068991 27.93854893 -29.08467727 25.87498599 -29.0625 23.8125 C-29.04896484 22.18248047 -29.04896484 22.18248047 -29.03515625 20.51953125 C-29.02355469 19.68808594 -29.01195313 18.85664063 -29 18 C-27.89591797 18.50660156 -27.89591797 18.50660156 -26.76953125 19.0234375 C-23.95530604 20.01575951 -22.57324474 20.11410928 -19.6875 19.625 C-18.470625 19.41875 -17.25375 19.2125 -16 19 C-15.94600264 17.54207116 -15.90720823 16.08357288 -15.875 14.625 C-15.84019531 13.40683594 -15.84019531 13.40683594 -15.8046875 12.1640625 C-15.78629949 9.78657757 -15.78629949 9.78657757 -18 8 C-20.58354218 7.83312552 -20.58354218 7.83312552 -23 8 C-23 8.66 -23 9.32 -23 10 C-21.35 10.33 -19.7 10.66 -18 11 C-18.33 12.65 -18.66 14.3 -19 16 C-24.36842105 16.35789474 -24.36842105 16.35789474 -26.875 14.9375 C-28.67440223 11.8385295 -28.42327427 9.50712967 -28 6 C-26.22334194 2.97310108 -25.17338423 1.3288724 -21.7421875 0.3671875 C-18.72393928 -0.03696539 -15.85619757 -0.06049585 -12.8125 0 C-8.06615199 0.09363942 -4.53667365 -1.44348707 0 0 Z " fill="#8CC63F" transform="translate(106,115)"/>
<path d="M0 0 C6.80641359 4.18856221 13.24890342 8.99087766 18.8125 14.75 C14.16221446 25.39915389 0.52606394 31.30387587 -9.515625 35.71484375 C-13.35846684 37.20366405 -17.11800362 38.14356524 -21.1875 38.75 C-22.239375 38.935625 -23.29125 39.12125 -24.375 39.3125 C-28.21579294 38.54434141 -29.22278678 36.60100696 -31.53125 33.57421875 C-34.26573539 30.56241527 -37.48526807 29.34578962 -41.1875 27.75 C-41.34758046 24.38831026 -41.25673531 21.94548795 -40.125 18.75 C-39.05237404 15.31759692 -39.36398006 13.20878373 -40.1875 9.75 C-38.5375 9.09 -36.8875 8.43 -35.1875 7.75 C-36.35513633 3.79800013 -37.65164855 0.9774473 -40.1875 -2.25 C-40.1875 -2.91 -40.1875 -3.57 -40.1875 -4.25 C-26.64330267 -10.62373992 -12.58431117 -7.03240919 0 0 Z " fill="#BBBCBF" transform="translate(143.1875,83.25)"/>
<path d="M0 0 C1.32 0.66 2.64 1.32 4 2 C3.82726562 2.49242187 3.65453125 2.98484375 3.4765625 3.4921875 C2.93336013 6.35067868 3.10592496 8.99711687 3.26757812 11.88964844 C3.65195859 19.88825654 3.14654384 24.72722544 -2.46875 30.921875 C-4.34106287 33.46287104 -4.30206628 34.9146087 -4 38 C-3.35417969 38.2165625 -2.70835938 38.433125 -2.04296875 38.65625 C0 40 0 40 0.57421875 42.53125 C0.61160156 43.5109375 0.64898437 44.490625 0.6875 45.5 C0.76839782 49.39771356 0.76839782 49.39771356 2 53 C2.19131856 55.04073128 2.31667294 57.07827865 2.42578125 59.125 C2.83912032 61.13938384 2.83912032 61.13938384 4.68359375 62.2421875 C7.4879262 63.1596251 9.80435538 63.1951344 12.75 63.125 C13.73484375 63.10695312 14.7196875 63.08890625 15.734375 63.0703125 C16.48203125 63.04710937 17.2296875 63.02390625 18 63 C18.33 64.32 18.66 65.64 19 67 C16.525 67.495 16.525 67.495 14 68 C13.7763663 69.41433206 13.57173524 70.83167618 13.375 72.25 C13.25898438 73.03890625 13.14296875 73.8278125 13.0234375 74.640625 C12.99565784 77.43711059 13.30692461 78.76731871 15 81 C17.34778923 81.7323819 17.34778923 81.7323819 20 81.9375 C24.78369661 82.7613204 24.78369661 82.7613204 26.8125 85 C27.21388818 91.42221086 24.65344481 97.78079313 21 103 C12.13504988 101.53606328 4.1334112 91.87547242 -1 85 C-12.22257052 67.83727769 -17.18253728 48.49460506 -13.38671875 28.0390625 C-10.77628591 17.98832108 -5.74190922 8.61286383 0 0 Z " fill="#8CC53F" transform="translate(17,54)"/>
<path d="M0 0 C1.81726718 7.00738226 2.38530463 13.52072767 2.375 20.75 C2.3747583 22.33409668 2.3747583 22.33409668 2.37451172 23.95019531 C2.25808314 31.9188122 1.28566999 38.66120426 -2 46 C-2.226875 46.721875 -2.45375 47.44375 -2.6875 48.1875 C-4.8274379 51.14265234 -7.67984718 51.37305201 -11.125 52.25 C-11.78371094 52.42273438 -12.44242188 52.59546875 -13.12109375 52.7734375 C-14.74369882 53.19672578 -16.37142454 53.60029741 -18 54 C-19.125 49.25 -19.125 49.25 -18 47 C-17.81169938 41.53928212 -18.22798036 36.40413745 -19 31 C-18.030625 30.525625 -17.06125 30.05125 -16.0625 29.5625 C-13.19522563 28.29806053 -13.19522563 28.29806053 -12 27 C-11.83333333 23.5 -11.83333333 23.5 -12 20 C-13.12534105 18.64381501 -13.12534105 18.64381501 -16.0625 18.9375 C-17.031875 18.958125 -18.00125 18.97875 -19 19 C-19 19.66 -19 20.32 -19 21 C-17.68 20.67 -16.36 20.34 -15 20 C-14.375 22.375 -14.375 22.375 -14 25 C-16 27 -16 27 -18.23046875 27.5 C-22.45621805 26.73710027 -24.46766134 24.06952215 -27.3125 21 C-27.86228516 20.42765625 -28.41207031 19.8553125 -28.97851562 19.265625 C-30.3305941 17.85476051 -31.66688335 16.42879488 -33 15 C-29.27552836 10.91233896 -25.59578621 8.37843546 -20.6875 5.875 C-20.02250488 5.53025635 -19.35750977 5.1855127 -18.67236328 4.83032227 C-5.52321744 -1.898606 -5.52321744 -1.898606 0 0 Z " fill="#BABBBE" transform="translate(119,23)"/>
<path d="M0 0 C1.134375 0.020625 2.26875 0.04125 3.4375 0.0625 C6.70117221 7.29933838 7.60082128 13.2116548 7.5625 21.125 C7.56830078 22.32866211 7.56830078 22.32866211 7.57421875 23.55664062 C7.57292969 24.33330078 7.57164063 25.10996094 7.5703125 25.91015625 C7.56918457 26.61148682 7.56805664 27.31281738 7.56689453 28.03540039 C7.43198344 30.14892259 7.01223344 32.02810344 6.4375 34.0625 C5.73625 34.02769531 5.035 33.99289063 4.3125 33.95703125 C-3.42725313 33.7361959 -9.10435951 34.00546045 -15.0546875 39.265625 C-17.28933535 41.47938829 -19.45124096 43.73131815 -21.5625 46.0625 C-22.24609375 44.328125 -22.24609375 44.328125 -22.5625 42.0625 C-21.41015625 40.046875 -21.41015625 40.046875 -19.625 37.8125 C-11.96409713 27.35744017 -7.05077939 16.68011547 -5.03515625 3.87890625 C-4.33969741 -0.2651088 -4.36985697 0.07666416 0 0 Z " fill="#8DC63F" transform="translate(47.5625,-0.0625)"/>
<path d="M0 0 C0.66 0 1.32 0 2 0 C2 0.66 2 1.32 2 2 C5.58881713 3.6947192 7.2313308 4.00497845 11 3 C11.99 3.66 12.98 4.32 14 5 C13.34 8.63 12.68 12.26 12 16 C12.66 16 13.32 16 14 16 C14.22429688 16.63421875 14.44859375 17.2684375 14.6796875 17.921875 C15.83785757 20.22016157 15.83785757 20.22016157 18.3828125 20.828125 C19.28773437 20.96734375 20.19265625 21.1065625 21.125 21.25 C22.03507812 21.39953125 22.94515625 21.5490625 23.8828125 21.703125 C24.58148438 21.80109375 25.28015625 21.8990625 26 22 C26.35050464 27.841744 26.16727335 31.8531808 23 37 C21.02 37 19.04 37 17 37 C16.67 36.01 16.34 35.02 16 34 C15.07960938 33.94585937 14.15921875 33.89171875 13.2109375 33.8359375 C10 33 10 33 8.1015625 30.6015625 C7.61429688 29.61929688 7.12703125 28.63703125 6.625 27.625 C6.12226563 26.64789063 5.61953125 25.67078125 5.1015625 24.6640625 C4 22 4 22 4 19 C3.34 19 2.68 19 2 19 C2 18.34 2 17.68 2 17 C2.66 16.67 3.32 16.34 4 16 C2.16116119 13.71271266 2.16116119 13.71271266 -0.625 13.875 C-1.40875 13.91625 -2.1925 13.9575 -3 14 C-4.91384609 10.49128216 -5.04276246 9.18632214 -4.125 5.1875 C-3.75375 4.135625 -3.3825 3.08375 -3 2 C-2.34 2 -1.68 2 -1 2 C-0.67 1.34 -0.34 0.68 0 0 Z " fill="#8CC63F" transform="translate(15,116)"/>
<path d="M0 0 C1.32 0.66 2.64 1.32 4 2 C3.82726562 2.49242187 3.65453125 2.98484375 3.4765625 3.4921875 C2.93336013 6.35067868 3.10592496 8.99711687 3.26757812 11.88964844 C3.65195859 19.88825654 3.14654384 24.72722544 -2.46875 30.921875 C-4.34106287 33.46287104 -4.30206628 34.9146087 -4 38 C-3.35417969 38.2165625 -2.70835938 38.433125 -2.04296875 38.65625 C0 40 0 40 0.57421875 42.53125 C0.61160156 43.5109375 0.64898437 44.490625 0.6875 45.5 C0.76839782 49.39771356 0.76839782 49.39771356 2 53 C2.19131856 55.04073128 2.31667294 57.07827865 2.42578125 59.125 C2.83912032 61.13938384 2.83912032 61.13938384 4.68359375 62.2421875 C7.4879262 63.1596251 9.80435538 63.1951344 12.75 63.125 C13.73484375 63.10695312 14.7196875 63.08890625 15.734375 63.0703125 C16.48203125 63.04710937 17.2296875 63.02390625 18 63 C18.33 64.32 18.66 65.64 19 67 C16.525 67.495 16.525 67.495 14 68 C13.7763663 69.41433206 13.57173524 70.83167618 13.375 72.25 C13.25898438 73.03890625 13.14296875 73.8278125 13.0234375 74.640625 C12.99565784 77.43711059 13.30692461 78.76731871 15 81 C17.34778923 81.7323819 17.34778923 81.7323819 20 81.9375 C24.78369661 82.7613204 24.78369661 82.7613204 26.8125 85 C27.21388818 91.42221086 24.65344481 97.78079313 21 103 C17.56049636 102.38801624 15.48435515 101.07941153 12.75 98.9375 C12.04359375 98.38964844 11.3371875 97.84179688 10.609375 97.27734375 C10.07828125 96.85582031 9.5471875 96.43429688 9 96 C10.485 95.505 10.485 95.505 12 95 C12.37125 95.474375 12.7425 95.94875 13.125 96.4375 C15.62646962 98.52205802 17.81593418 98.64621491 21 99 C22.97094808 94.07262981 23.1799928 90.21979128 23 85 C22.37351563 84.87882812 21.74703125 84.75765625 21.1015625 84.6328125 C20.28429688 84.46523437 19.46703125 84.29765625 18.625 84.125 C17.81289063 83.96257812 17.00078125 83.80015625 16.1640625 83.6328125 C14 83 14 83 12 81 C12 80.01 12 79.02 12 78 C11.34 78 10.68 78 10 78 C9.85714286 70.57142857 9.85714286 70.57142857 11 67 C9.39125 66.62875 9.39125 66.62875 7.75 66.25 C3.77537408 64.92512469 2.51357451 64.25193702 0 61 C-0.76150265 58.24665648 -1.32162169 55.73707825 -1.75 52.9375 C-1.87503906 52.21755859 -2.00007812 51.49761719 -2.12890625 50.75585938 C-2.62772825 47.80403908 -3 44.99783722 -3 42 C-3.66 41.67 -4.32 41.34 -5 41 C-7.08882678 38.14160546 -6.98693582 36.86935819 -6.625 33.25 C-6.315625 31.64125 -6.315625 31.64125 -6 30 C-5.34 30 -4.68 30 -4 30 C-3.896875 29.071875 -3.79375 28.14375 -3.6875 27.1875 C-2.96755671 23.8495811 -2.45546562 23.14853242 0 21 C0.33 20.01 0.66 19.02 1 18 C0.34 17.67 -0.32 17.34 -1 17 C-0.67 16.67 -0.34 16.34 0 16 C-0.28674418 13.99279077 -0.61866701 11.9914056 -1 10 C-1.45375 10.495 -1.9075 10.99 -2.375 11.5 C-4 13 -4 13 -6 13 C-5.938125 13.7425 -5.87625 14.485 -5.8125 15.25 C-6 18 -6 18 -7.4375 19.8125 C-9.76389079 23.0694471 -9.62189912 26.02994081 -10 30 C-10.33 30.99 -10.66 31.98 -11 33 C-11.14889747 34.84466442 -11.2479101 36.69357275 -11.31640625 38.54296875 C-11.35830078 39.61611328 -11.40019531 40.68925781 -11.44335938 41.79492188 C-11.48267578 42.91447266 -11.52199219 44.03402344 -11.5625 45.1875 C-11.60568359 46.31865234 -11.64886719 47.44980469 -11.69335938 48.61523438 C-11.79949099 51.41003354 -11.90154385 54.20492162 -12 57 C-16.91872861 48.36217285 -14.91594703 33.94670714 -12.5 24.625 C-9.59992029 15.91432893 -5.08396328 7.62594492 0 0 Z " fill="#92B75F" transform="translate(17,54)"/>
<path d="M0 0 C2.625 0.9375 2.625 0.9375 5 2 C4.91621094 3.08539063 4.83242188 4.17078125 4.74609375 5.2890625 C4.64285903 6.73434861 4.54001517 8.17966267 4.4375 9.625 C4.38142578 10.33785156 4.32535156 11.05070312 4.26757812 11.78515625 C4.03557542 15.15692885 3.99520541 17.97258396 4.58203125 21.328125 C5 24 5 24 3.25 27.125 C1.93644846 28.80342697 0.59441698 30.46152551 -0.8125 32.0625 C-2.24689492 33.99512152 -2.24689492 33.99512152 -1.875 36.625 C-1.1432514 39.32987773 -1.1432514 39.32987773 2 41 C1.690625 42.0209375 1.690625 42.0209375 1.375 43.0625 C0.89480371 46.82403759 1.89672903 49.38372293 3 53 C3.19227917 54.4342987 3.35910555 55.87224558 3.5 57.3125 C3.62478684 61.02857707 3.62478684 61.02857707 6 63 C8.74485593 63.14507695 11.38480543 63.18652423 14.125 63.125 C14.87910156 63.11597656 15.63320313 63.10695312 16.41015625 63.09765625 C18.27357254 63.0740687 20.13682593 63.03819719 22 63 C22.66 65.97 23.32 68.94 24 72 C22.88625 71.79375 21.7725 71.5875 20.625 71.375 C18.830625 71.189375 18.830625 71.189375 17 71 C14.78629949 72.78657757 14.78629949 72.78657757 14.8046875 75.1640625 C14.82789062 75.97617188 14.85109375 76.78828125 14.875 77.625 C14.91625 79.06875 14.9575 80.5125 15 82 C19.29 82 23.58 82 28 82 C28.51940154 92.12833008 26.65870778 99.51193833 21 108 C17.12867972 107.42647107 14.91827204 105.51295648 12 103 C12.495 101.515 12.495 101.515 13 100 C13.763125 100.639375 14.52625 101.27875 15.3125 101.9375 C17.88246713 104.14232781 17.88246713 104.14232781 21 105 C22.55522693 101.32586128 23.70312225 97.67798336 24.6875 93.8125 C24.95949219 92.76707031 25.23148438 91.72164063 25.51171875 90.64453125 C26.26811026 88.0344035 26.26811026 88.0344035 25 86 C22.74484198 85.49851675 22.74484198 85.49851675 20.125 85.1875 C15.28789543 84.28789543 15.28789543 84.28789543 12.8125 81.8125 C11.75127714 78.13903624 12.04411907 75.68696929 13 72 C14.375 70.0625 14.375 70.0625 16 69 C16.99 69 17.98 69 19 69 C18.67 68.01 18.34 67.02 18 66 C17.26394531 66.03480469 16.52789062 66.06960937 15.76953125 66.10546875 C11.58101233 66.2216628 7.90758765 66.2722763 3.875 65.0625 C1.32120738 62.25332812 1.38364785 59.98071679 1.1796875 56.2734375 C1.07607184 53.80233735 1.07607184 53.80233735 -0.0625 50.8125 C-1 48 -1 48 -0.875 44.875 C-0.6819743 41.85346502 -0.6819743 41.85346502 -3.0625 39.9375 C-5 38 -5 38 -5.125 35.75 C-4 33 -4 33 -2.58203125 31.5 C2.02579693 26.5966579 2.47625892 22.74280145 2.3125 16.25 C2.25020127 14.77586234 2.1839751 13.30188391 2.11328125 11.828125 C2.02149963 8.72653927 2.17133341 6.87739212 3 4 C2.01 4 1.02 4 0 4 C-5.76895245 13.59158356 -10.95194822 22.84507721 -13 34 C-13.66 33.67 -14.32 33.34 -15 33 C-13.81742834 23.77594106 -10.13114339 15.26228677 -6 7 C-5.34 7 -4.68 7 -4 7 C-3.71125 6.030625 -3.4225 5.06125 -3.125 4.0625 C-2 1 -2 1 0 0 Z " fill="#071704" transform="translate(17,52)"/>
<path d="M0 0 C2.475 0.495 2.475 0.495 5 1 C9.56882002 11.57899398 9.23457422 24.8271289 7 36 C5.85402344 35.95359375 4.70804688 35.9071875 3.52734375 35.859375 C1.99742209 35.82183091 0.46747199 35.78543359 -1.0625 35.75 C-1.81466797 35.71648438 -2.56683594 35.68296875 -3.34179688 35.6484375 C-10.48533673 35.52473984 -14.4613165 37.57169404 -19.6953125 42.578125 C-21.32264793 44.36767071 -22.9476291 46.15935996 -24.5703125 47.953125 C-27 50 -27 50 -29.6796875 50.421875 C-32 50 -32 50 -34 48 C-33.625 45.375 -33.625 45.375 -33 43 C-32.0409375 43.2784375 -32.0409375 43.2784375 -31.0625 43.5625 C-30.381875 43.706875 -29.70125 43.85125 -29 44 C-28.505 43.505 -28.505 43.505 -28 43 C-28 42.34 -28 41.68 -28 41 C-27.34 41 -26.68 41 -26 41 C-25.7525 40.0925 -25.505 39.185 -25.25 38.25 C-23.94381763 34.85392584 -22.60917178 33.44083812 -20 31 C-19.67 30.01 -19.34 29.02 -19 28 C-18.34 28 -17.68 28 -17 28 C-17 27.34 -17 26.68 -17 26 C-16.34 26.33 -15.68 26.66 -15 27 C-16.10210905 28.75129657 -17.20677432 30.50098464 -18.3125 32.25 C-19.23482422 33.71179687 -19.23482422 33.71179687 -20.17578125 35.203125 C-22 38 -22 38 -23.73046875 40.171875 C-25.2851979 42.0397346 -25.2851979 42.0397346 -25 45 C-24.443125 44.38511719 -23.88625 43.77023438 -23.3125 43.13671875 C-17.86374153 37.36582084 -13.63400581 33.46195225 -5.5703125 32.80078125 C0.35544479 32.67772239 0.35544479 32.67772239 3 34 C3.62320328 16.7435599 3.62320328 16.7435599 0 0 Z " fill="#030D02" transform="translate(51,0)"/>
<path d="M0 0 C0.70640625 0.05220703 1.4128125 0.10441406 2.140625 0.15820312 C3.88579987 0.28791207 5.63045725 0.42454954 7.375 0.5625 C5.375 2.5625 5.375 2.5625 2.9921875 2.7578125 C2.08726563 2.73460938 1.18234375 2.71140625 0.25 2.6875 C-1.11511719 2.66042969 -1.11511719 2.66042969 -2.5078125 2.6328125 C-3.20648438 2.60960938 -3.90515625 2.58640625 -4.625 2.5625 C-4.295 3.2225 -3.965 3.8825 -3.625 4.5625 C-2.635 4.8925 -1.645 5.2225 -0.625 5.5625 C1.37043195 9.23829569 1.97841732 12.42478123 1.375 16.5625 C-0.625 19.4375 -0.625 19.4375 -3.625 21.5625 C-6.38803859 21.92605771 -8.81952193 21.74953187 -11.625 21.5625 C-12.89268542 22.62553855 -12.89268542 22.62553855 -12.9375 25.0625 C-12.52444241 29.68874506 -10.94203745 33.545738 -8.625 37.5625 C-7.965 37.8925 -7.305 38.2225 -6.625 38.5625 C-5.14 38.0675 -5.14 38.0675 -3.625 37.5625 C-2.965 38.2225 -2.305 38.8825 -1.625 39.5625 C-3.11 40.0575 -3.11 40.0575 -4.625 40.5625 C-4.625 41.5525 -4.625 42.5425 -4.625 43.5625 C-3.84125 43.871875 -3.0575 44.18125 -2.25 44.5 C0.375 45.5625 0.375 45.5625 2.375 46.5625 C2.045 47.8825 1.715 49.2025 1.375 50.5625 C-7.03073108 44.71929276 -11.39881237 39.24106289 -14.625 29.5625 C-14.693991 27.50104893 -14.70967727 25.43748599 -14.6875 23.375 C-14.67396484 21.74498047 -14.67396484 21.74498047 -14.66015625 20.08203125 C-14.64855469 19.25058594 -14.63695313 18.41914063 -14.625 17.5625 C-13.52091797 18.06910156 -13.52091797 18.06910156 -12.39453125 18.5859375 C-9.58030604 19.57825951 -8.19824474 19.67660928 -5.3125 19.1875 C-4.095625 18.98125 -2.87875 18.775 -1.625 18.5625 C-1.57100264 17.10457116 -1.53220823 15.64607288 -1.5 14.1875 C-1.46519531 12.96933594 -1.46519531 12.96933594 -1.4296875 11.7265625 C-1.41129949 9.34907757 -1.41129949 9.34907757 -3.625 7.5625 C-6.20854218 7.39562552 -6.20854218 7.39562552 -8.625 7.5625 C-8.625 8.2225 -8.625 8.8825 -8.625 9.5625 C-6.975 9.8925 -5.325 10.2225 -3.625 10.5625 C-3.955 12.2125 -4.285 13.8625 -4.625 15.5625 C-9.99342105 15.92039474 -9.99342105 15.92039474 -12.5 14.5 C-14.29940223 11.4010295 -14.04827427 9.06962967 -13.625 5.5625 C-9.63961683 -0.54842086 -6.84939127 -0.54972052 0 0 Z " fill="#90B45C" transform="translate(91.625,115.4375)"/>
<path d="M0 0 C1.134375 0.020625 2.26875 0.04125 3.4375 0.0625 C6.70117221 7.29933838 7.60082128 13.2116548 7.5625 21.125 C7.56830078 22.32866211 7.56830078 22.32866211 7.57421875 23.55664062 C7.57292969 24.33330078 7.57164063 25.10996094 7.5703125 25.91015625 C7.56918457 26.61148682 7.56805664 27.31281738 7.56689453 28.03540039 C7.43198344 30.14892259 7.01223344 32.02810344 6.4375 34.0625 C5.73625 34.02769531 5.035 33.99289063 4.3125 33.95703125 C-3.42725313 33.7361959 -9.10435951 34.00546045 -15.0546875 39.265625 C-17.28933535 41.47938829 -19.45124096 43.73131815 -21.5625 46.0625 C-22.24609375 44.328125 -22.24609375 44.328125 -22.5625 42.0625 C-21.41015625 40.046875 -21.41015625 40.046875 -19.625 37.8125 C-11.96409713 27.35744017 -7.05077939 16.68011547 -5.03515625 3.87890625 C-4.33969741 -0.2651088 -4.36985697 0.07666416 0 0 Z M-0.5625 3.0625 C-1.92097022 5.41718172 -2.57476443 7.15448326 -2.9375 9.875 C-3.57805955 13.1418537 -4.78128197 15.3723345 -6.515625 18.1875 C-7.65114165 20.22126116 -8.41863693 22.24074838 -9.1875 24.4375 C-10.5625 28.0625 -10.5625 28.0625 -12.5625 29.0625 C-12.2325 30.3825 -11.9025 31.7025 -11.5625 33.0625 C-11.04171875 32.90910156 -10.5209375 32.75570312 -9.984375 32.59765625 C-6.92971485 31.92267489 -3.93234029 31.71838882 -0.8125 31.5 C0.94320312 31.37431641 0.94320312 31.37431641 2.734375 31.24609375 C3.62640625 31.18550781 4.5184375 31.12492187 5.4375 31.0625 C5.46653577 27.95835298 5.4843107 24.85424091 5.5 21.75 C5.50837891 20.86892578 5.51675781 19.98785156 5.52539062 19.08007812 C5.52861328 18.23251953 5.53183594 17.38496094 5.53515625 16.51171875 C5.54039307 15.73143311 5.54562988 14.95114746 5.55102539 14.1472168 C5.51887863 11.8663445 5.51887863 11.8663445 4.4375 9.0625 C3.7775 9.0625 3.1175 9.0625 2.4375 9.0625 C2.4375 7.4125 2.4375 5.7625 2.4375 4.0625 C1.4475 3.7325 0.4575 3.4025 -0.5625 3.0625 Z " fill="#92B75D" transform="translate(47.5625,-0.0625)"/>
<path d="M0 0 C4.78446495 0.273398 7.86622959 2.56551425 11 6 C18.84824328 16.40082726 20.24169739 26.92604566 20.3125 39.625 C20.31813965 40.59074951 20.3237793 41.55649902 20.32958984 42.55151367 C20.26562195 48.90764505 19.47476016 54.81900751 18 61 C14.52128379 62.15957207 13.65780355 61.77456651 10.3125 60.5625 C9.10013672 60.13130859 9.10013672 60.13130859 7.86328125 59.69140625 C7.24839844 59.46324219 6.63351563 59.23507813 6 59 C9.47823115 57.84058962 11.45895578 58.29179116 15 59 C15.144375 57.865625 15.28875 56.73125 15.4375 55.5625 C16 52 16 52 17 51 C17.28478699 46.86152722 17.23197902 42.70957827 17.25 38.5625 C17.270625 37.41072266 17.29125 36.25894531 17.3125 35.07226562 C17.35211253 26.34265512 16.61280004 17.12393852 11 10 C7.86111282 7.76973806 4.60083877 6.3374544 1 5 C1 4.34 1 3.68 1 3 C0.34 2.34 -0.32 1.68 -1 1 C-0.67 0.67 -0.34 0.34 0 0 Z " fill="#91B75F" transform="translate(101,114)"/>
<path d="M0 0 C0.99 0.86625 1.98 1.7325 3 2.625 C6.3757053 5.53128207 9.88735647 8.191808 13.49609375 10.80078125 C13.99238281 11.19652344 14.48867187 11.59226563 15 12 C15 12.33 15 12.66 15 13 C9.7694488 13.20352339 5.19697335 12.53064327 0.1875 11.125 C-0.47958984 10.95097656 -1.14667969 10.77695313 -1.83398438 10.59765625 C-4.86282173 9.77244325 -6.74435162 9.25564838 -9 7 C-8.43410156 6.57847656 -7.86820313 6.15695313 -7.28515625 5.72265625 C-6.55167969 5.17480469 -5.81820312 4.62695312 -5.0625 4.0625 C-4.33160156 3.51722656 -3.60070313 2.97195312 -2.84765625 2.41015625 C-1.0865547 1.13092062 -1.0865547 1.13092062 0 0 Z " fill="#93B465" transform="translate(54,154)"/>
<path d="M0 0 C2.5625 0.3125 2.5625 0.3125 4.375 1.375 C6.23286623 4.40625543 5.93383265 6.84672859 5.5625 10.3125 C3.9305982 13.03233633 2.69843678 13.27490047 -0.375 14.125 C-3.4375 14.3125 -3.4375 14.3125 -7.4375 12.3125 C-7.7675 15.6125 -8.0975 18.9125 -8.4375 22.3125 C-8.7675 22.3125 -9.0975 22.3125 -9.4375 22.3125 C-9.4375 18.3525 -9.4375 14.3925 -9.4375 10.3125 C-8.7775 10.3125 -8.1175 10.3125 -7.4375 10.3125 C-7.1075 8.9925 -6.7775 7.6725 -6.4375 6.3125 C-6.4375 6.9725 -6.4375 7.6325 -6.4375 8.3125 C-3.7975 8.6425 -1.1575 8.9725 1.5625 9.3125 C1.5625 7.6625 1.5625 6.0125 1.5625 4.3125 C0.2425 3.9825 -1.0775 3.6525 -2.4375 3.3125 C-2.7675 4.6325 -3.0975 5.9525 -3.4375 7.3125 C-4.0625 4.9375 -4.0625 4.9375 -4.4375 2.3125 C-2.4375 0.3125 -2.4375 0.3125 0 0 Z " fill="#071602" transform="translate(85.4375,121.6875)"/>
<path d="M0 0 C2.55589824 2.22252021 3.28545662 3.73351596 4 7 C4.99 8.485 4.99 8.485 6 10 C6.53916146 12.6602023 6.73370098 15.29262663 7 18 C10.465 17.505 10.465 17.505 14 17 C14.66 17.99 15.32 18.98 16 20 C14.68 20.33 13.36 20.66 12 21 C12 21.66 12 22.32 12 23 C12.66 23 13.32 23 14 23 C14.84069415 24.60032137 15.67231505 26.20541171 16.5 27.8125 C16.9640625 28.70582031 17.428125 29.59914062 17.90625 30.51953125 C19 33 19 33 19 36 C9.86120552 26.81259491 0 13.48579644 0 0 Z " fill="#93BE51" transform="translate(5,112)"/>
<path d="M0 0 C2.25 1.3125 2.25 1.3125 3.0625 3.9375 C3.124375 4.72125 3.18625 5.505 3.25 6.3125 C0.48504535 8.1558031 -1.63729916 8.42798056 -4.875 8.375 C-8.5449035 8.01762683 -8.5449035 8.01762683 -10.75 9.3125 C-11.11272727 2.90431818 -11.11272727 2.90431818 -9.5625 0.375 C-6.27244863 -1.5536508 -3.57530105 -0.89382526 0 0 Z " fill="#676A6A" transform="translate(41.75,122.6875)"/>
<path d="M0 0 C1.4540625 0.0309375 1.4540625 0.0309375 2.9375 0.0625 C3.5975 3.0325 4.2575 6.0025 4.9375 9.0625 C4.2775 9.0625 3.6175 9.0625 2.9375 9.0625 C2.6075 7.4125 2.2775 5.7625 1.9375 4.0625 C0.9475 4.3925 -0.0425 4.7225 -1.0625 5.0625 C-1.145 6.238125 -1.2275 7.41375 -1.3125 8.625 C-1.77659281 12.3508155 -2.91586202 14.98224319 -4.94140625 18.1875 C-7.0033903 21.63611444 -8.48909646 25.371697 -10.0625 29.0625 C-10.7225 29.0625 -11.3825 29.0625 -12.0625 29.0625 C-11.18322402 26.27812605 -10.26933444 23.54059272 -9.109375 20.859375 C-6.61517758 15.0892168 -5.30619206 9.66341839 -4.45703125 3.43359375 C-3.86620286 -0.11722637 -3.71414513 0.07579888 0 0 Z " fill="#8EC047" transform="translate(47.0625,-0.0625)"/>
<path d="M0 0 C4.69764755 2.15352832 8.53523091 5.17051837 12 9 C13 12.4375 13 12.4375 13 15 C8.21224044 11.46386286 3.53548584 7.85516296 -1 4 C-1.47050781 4.42152344 -1.94101562 4.84304687 -2.42578125 5.27734375 C-3.04839844 5.82519531 -3.67101563 6.37304688 -4.3125 6.9375 C-5.23482422 7.75541016 -5.23482422 7.75541016 -6.17578125 8.58984375 C-8 10 -8 10 -11 11 C-11 10.34 -11 9.68 -11 9 C-9.1015625 7.34375 -9.1015625 7.34375 -6.625 5.5 C-4.27095638 3.73633557 -2.0808095 2.0808095 0 0 Z " fill="#040F02" transform="translate(55,151)"/>
<path d="M0 0 C0.969375 0.86625 1.93875 1.7325 2.9375 2.625 C7.03550142 6.15196844 11.45085539 9.09102317 16 12 C12.49068215 12.96808768 10.07554164 13.59752313 6.75 11.75 C5.38875 10.88375 5.38875 10.88375 4 10 C2.73261154 9.264862 1.46167153 8.53581757 0.1875 7.8125 C-0.864375 7.214375 -1.91625 6.61625 -3 6 C-3 5.34 -3 4.68 -3 4 C-2.01 3.67 -1.02 3.34 0 3 C0 2.01 0 1.02 0 0 Z " fill="#071006" transform="translate(81,155)"/>
<path d="M0 0 C0.33 0 0.66 0 1 0 C1.68506017 10.00949029 -0.41762655 17.62643982 -6 26 C-9.87132028 25.42647107 -12.08172796 23.51295648 -15 21 C-14.505 19.515 -14.505 19.515 -14 18 C-13.236875 18.639375 -12.47375 19.27875 -11.6875 19.9375 C-9.11753287 22.14232781 -9.11753287 22.14232781 -6 23 C-4.46716644 19.36537719 -3.30199321 15.75549575 -2.3125 11.9375 C-2.04050781 10.91527344 -1.76851562 9.89304688 -1.48828125 8.83984375 C-1.00512222 6.02979085 -1.30263012 4.6762314 -2 2 C-1.34 1.34 -0.68 0.68 0 0 Z " fill="#071304" transform="translate(44,134)"/>
<path d="M0 0 C4.09711578 2.53509039 7.08563157 5.15784206 8.4375 9.875 C8.623125 10.90625 8.80875 11.9375 9 13 C8.34 13 7.68 13 7 13 C5.80614036 11.27553607 4.61263674 9.55082327 3.421875 7.82421875 C1.31107154 5.11612749 -0.97306514 3.57652858 -4 2 C-6.75258812 1.66290938 -6.75258812 1.66290938 -9 2 C-9 1.34 -9 0.68 -9 0 C-5.31222985 -1.22925672 -3.73801355 -1.07827314 0 0 Z " fill="#031002" transform="translate(108,113)"/>
<path d="M0 0 C2 3 2 3 2 5 C2.31478446 6.33783393 2.64587656 7.67203709 3 9 C3.33 8.01 3.66 7.02 4 6 C5.65 6.33 7.3 6.66 9 7 C8.67 8.65 8.34 10.3 8 12 C2.63157895 12.35789474 2.63157895 12.35789474 0.125 10.9375 C-1.60291334 7.96164925 -1.24465864 5.36405631 -1 2 C-0.67 1.34 -0.34 0.68 0 0 Z " fill="#95B263" transform="translate(79,119)"/>
<path d="M0 0 C2.875 -0.125 2.875 -0.125 6 0 C8 2 8 2 8.375 5.4375 C8 9 8 9 6 10.9375 C5.34 11.288125 4.68 11.63875 4 12 C2.89155081 8.67465243 3.15545644 6.37817425 4 3 C1.83125748 3.50603992 0.00032373 3.99983813 -2 5 C-1.34 3.35 -0.68 1.7 0 0 Z " fill="#09090D" transform="translate(100,41)"/>
<path d="M0 0 C0.66 0.33 1.32 0.66 2 1 C2 2.65 2 4.3 2 6 C2.33 5.34 2.66 4.68 3 4 C4.65 4.33 6.3 4.66 8 5 C7.34 6.65 6.68 8.3 6 10 C3.03 9.505 3.03 9.505 0 9 C-1.125 3.375 -1.125 3.375 0 0 Z " fill="#08080A" transform="translate(77,80)"/>
<path d="M0 0 C0.33 0 0.66 0 1 0 C1.47627199 7.38221579 0.06211332 12.32700754 -3 19 C-3.58629289 20.37374067 -4.17001787 21.74858309 -4.75 23.125 C-5.1625 24.07375 -5.575 25.0225 -6 26 C-6.66 26 -7.32 26 -8 26 C-6.84007073 22.32689064 -5.49817332 18.79418613 -4 15.25 C-1.96842659 10.26203244 -0.8577209 5.30432664 0 0 Z " fill="#93B65F" transform="translate(43,3)"/>
<path d="M0 0 C1.9375 0.3125 1.9375 0.3125 4 1 C4.33 1.99 4.66 2.98 5 4 C5.66 4 6.32 4 7 4 C6.67 4.99 6.34 5.98 6 7 C3.625 7.125 3.625 7.125 1 7 C0.34 6.34 -0.32 5.68 -1 5 C-0.625 2.375 -0.625 2.375 0 0 Z " fill="#060608" transform="translate(18,43)"/>
<path d="M0 0 C2.875 2.5625 2.875 2.5625 5 5 C-3.19256018 4.64989059 -3.19256018 4.64989059 -6.5625 1.9375 C-7.036875 1.298125 -7.51125 0.65875 -8 0 C-4.99054157 -1.50472922 -3.20590237 -0.88005163 0 0 Z " fill="#90C444" transform="translate(59,160)"/>
<path d="M0 0 C2.31 0.33 4.62 0.66 7 1 C7.33 2.32 7.66 3.64 8 5 C5.69 5.33 3.38 5.66 1 6 C-0.0625 4.125 -0.0625 4.125 -1 2 C-0.67 1.34 -0.34 0.68 0 0 Z " fill="#09080B" transform="translate(35,125)"/>
<path d="M0 0 C0.99 0.66 1.98 1.32 3 2 C2.01 2.33 1.02 2.66 0 3 C0 3.99 0 4.98 0 6 C1.175625 6.4640625 1.175625 6.4640625 2.375 6.9375 C5 8 5 8 7 9 C6.67 10.32 6.34 11.64 6 13 C-1.68490153 7.9059081 -1.68490153 7.9059081 -3 4.125 C-3 3.42375 -3 2.7225 -3 2 C-2.01 1.34 -1.02 0.68 0 0 Z " fill="#8FBA55" transform="translate(87,153)"/>
<path d="M0 0 C3.69459731 0.19970796 4.78742451 0.76444338 7.3125 3.5625 C8.1478125 4.7690625 8.1478125 4.7690625 9 6 C8.67 6.66 8.34 7.32 8 8 C5.69 7.01 3.38 6.02 1 5 C1 4.34 1 3.68 1 3 C0.34 2.34 -0.32 1.68 -1 1 C-0.67 0.67 -0.34 0.34 0 0 Z " fill="#96C156" transform="translate(101,114)"/>
<path d="M0 0 C-1.32 0.99 -2.64 1.98 -4 3 C-3.67 3.99 -3.34 4.98 -3 6 C-8.75 5.25 -8.75 5.25 -11 3 C-9.73581754 2.30034557 -8.46334598 1.61565237 -7.1875 0.9375 C-6.47980469 0.55464844 -5.77210937 0.17179688 -5.04296875 -0.22265625 C-3 -1 -3 -1 0 0 Z " fill="#91B85A" transform="translate(56,158)"/>
<path d="M0 0 C3.83039408 1.27679803 3.98757415 2.59435626 6 6 C7.2684375 7.2375 7.2684375 7.2375 8.5625 8.5 C10.97781863 10.97724988 11.97543604 12.74002375 13 16 C6.98547406 11.74582312 3.71902213 6.28272674 0 0 Z " fill="#96BA67" transform="translate(12,132)"/>
<path d="M0 0 C1.67542976 0.28604898 3.34385343 0.61781233 5 1 C4.1875 4.4375 4.1875 4.4375 3 8 C2.01 8.33 1.02 8.66 0 9 C-0.87890625 2.84765625 -0.87890625 2.84765625 -1 1 C-0.67 0.67 -0.34 0.34 0 0 Z " fill="#B3B3B6" transform="translate(101,53)"/>
<path d="M0 0 C0.66 0 1.32 0 2 0 C2.33 0.99 2.66 1.98 3 3 C2.67 3.33 2.34 3.66 2 4 C2.99 4.66 3.98 5.32 5 6 C2.69 6.66 0.38 7.32 -2 8 C-2 2 -2 2 0 0 Z " fill="#93BC5C" transform="translate(82,116)"/>
<path d="M0 0 C0.66 0.33 1.32 0.66 2 1 C2 2.32 2 3.64 2 5 C1.484375 4.690625 0.96875 4.38125 0.4375 4.0625 C-2.66665423 2.70940713 -5.65115007 2.38640576 -9 2 C-9 1.34 -9 0.68 -9 0 C-5.49142603 -1.16952466 -3.57280503 -0.76017128 0 0 Z " fill="#0D190A" transform="translate(108,113)"/>
<path d="M0 0 C0.80824219 0.10183594 1.61648437 0.20367187 2.44921875 0.30859375 C3.06410156 0.39238281 3.67898437 0.47617187 4.3125 0.5625 C4.3125 0.8925 4.3125 1.2225 4.3125 1.5625 C2.88103622 1.97963515 1.44191114 2.3705497 0 2.75 C-0.80050781 2.97042969 -1.60101563 3.19085938 -2.42578125 3.41796875 C-4.6875 3.5625 -4.6875 3.5625 -6.48046875 2.11328125 C-6.87878906 1.60152344 -7.27710938 1.08976562 -7.6875 0.5625 C-4.59271121 -0.46909626 -3.16118607 -0.41232862 0 0 Z " fill="#646A64" transform="translate(45.6875,35.4375)"/>
<path d="M0 0 C0.33 0.66 0.66 1.32 1 2 C1.66 2 2.32 2 3 2 C2.67 3.32 2.34 4.64 2 6 C1.34 6 0.68 6 0 6 C-0.33 9.3 -0.66 12.6 -1 16 C-1.33 16 -1.66 16 -2 16 C-2 12.04 -2 8.08 -2 4 C-1.34 4 -0.68 4 0 4 C0 2.68 0 1.36 0 0 Z " fill="#101E08" transform="translate(78,128)"/>
<path d="M0 0 C0.66 0 1.32 0 2 0 C4.53309233 4.64203897 6.46515599 8.65155992 7 14 C3.65703935 10.33352703 2.6639874 7.86924097 2 3 C1.34 2.67 0.68 2.34 0 2 C0 1.34 0 0.68 0 0 Z " fill="#91C349" transform="translate(111,124)"/>
<path d="M0 0 C-1 2 -1 2 -2.84765625 2.6328125 C-3.57855469 2.79523438 -4.30945313 2.95765625 -5.0625 3.125 C-5.79597656 3.29257813 -6.52945313 3.46015625 -7.28515625 3.6328125 C-7.85105469 3.75398438 -8.41695313 3.87515625 -9 4 C-8.6875 2.0625 -8.6875 2.0625 -8 0 C-4.71023192 -1.09658936 -3.28696233 -0.79953138 0 0 Z " fill="#09090C" transform="translate(112,75)"/>
<path d="M0 0 C3.82946843 1.45255699 5.12050295 3.42895561 7 7 C1.33846154 5.52307692 1.33846154 5.52307692 -0.375 2.875 C-0.58125 2.25625 -0.7875 1.6375 -1 1 C-0.67 0.67 -0.34 0.34 0 0 Z " fill="#68686A" transform="translate(60,145)"/>
<path d="M0 0 C2.9375 0.8125 2.9375 0.8125 6 2 C6.33 2.99 6.66 3.98 7 5 C6.34 5 5.68 5 5 5 C5 5.66 5 6.32 5 7 C4.01 7 3.02 7 2 7 C1.34 4.69 0.68 2.38 0 0 Z " fill="#92C54C" transform="translate(78,142)"/>
<path d="M0 0 C5.94 1.485 5.94 1.485 12 3 C11.34 3.66 10.68 4.32 10 5 C8.25 4.6875 8.25 4.6875 6 4 C4.00211562 3.65421232 2.00240549 3.31856451 0 3 C0 2.01 0 1.02 0 0 Z " fill="#041301" transform="translate(45,162)"/>
<path d="M0 0 C3.50281042 4.67041389 3.5344992 6.41399038 4 12 C3.34 12 2.68 12 2 12 C1.34 8.04 0.68 4.08 0 0 Z " fill="#90B563" transform="translate(50,0)"/>
<path d="M0 0 C2.76276177 0.52268466 5.3260876 1.10869587 8 2 C8 2.66 8 3.32 8 4 C9.32 4.66 10.64 5.32 12 6 C7.24518354 5.42365861 4.02951788 3.44931479 0 1 C0 0.67 0 0.34 0 0 Z " fill="#8DB15D" transform="translate(95,166)"/>
<path d="M0 0 C1.258125 -0.04125 2.51625 -0.0825 3.8125 -0.125 C4.52019531 -0.14820313 5.22789063 -0.17140625 5.95703125 -0.1953125 C8 0 8 0 11 2 C10.67 2.66 10.34 3.32 10 4 C8.35 4 6.7 4 5 4 C5 3.34 5 2.68 5 2 C3.35 2 1.7 2 0 2 C0 1.34 0 0.68 0 0 Z " fill="#626167" transform="translate(35,130)"/>
<path d="M0 0 C2.29777367 3.44666051 2.23697759 3.75586767 1.5 7.625 C1.2525 8.800625 1.2525 8.800625 1 10 C0.34 9.67 -0.32 9.34 -1 9 C-1.125 2.25 -1.125 2.25 0 0 Z " fill="#9CB970" transform="translate(79,119)"/>
<path d="M0 0 C0.78375 0.04125 1.5675 0.0825 2.375 0.125 C1.385 1.61 1.385 1.61 0.375 3.125 C-0.615 3.125 -1.605 3.125 -2.625 3.125 C-2.955 4.445 -3.285 5.765 -3.625 7.125 C-4.25 4.75 -4.25 4.75 -4.625 2.125 C-2.625 0.125 -2.625 0.125 0 0 Z " fill="#0B2902" transform="translate(85.625,121.875)"/>
<path d="M0 0 C0.99 0 1.98 0 3 0 C3.33 2.31 3.66 4.62 4 7 C2.0625 6.25 2.0625 6.25 0 5 C-0.8125 2.9375 -0.8125 2.9375 -1 1 C-0.67 0.67 -0.34 0.34 0 0 Z " fill="#050907" transform="translate(37,117)"/>
<path d="M0 0 C0.99 0.33 1.98 0.66 3 1 C1.515 4.465 1.515 4.465 0 8 C-0.66 8 -1.32 8 -2 8 C-1.34 5.36 -0.68 2.72 0 0 Z " fill="#67686A" transform="translate(58,107)"/>
<path d="M0 0 C0.66 0 1.32 0 2 0 C1.67 2.31 1.34 4.62 1 7 C0.01 7.33 -0.98 7.66 -2 8 C-1.125 1.125 -1.125 1.125 0 0 Z " fill="#8BB654" transform="translate(5,80)"/>
<path d="M0 0 C1.32 0.66 2.64 1.32 4 2 C1.03 4.475 1.03 4.475 -2 7 C-1.125 2.25 -1.125 2.25 0 0 Z " fill="#94A973" transform="translate(27,39)"/>
<path d="M0 0 C1.98 0.66 3.96 1.32 6 2 C5.34 2.66 4.68 3.32 4 4 C0.375 3.625 0.375 3.625 -3 3 C-2.01 2.67 -1.02 2.34 0 2 C0 1.34 0 0.68 0 0 Z " fill="#66636A" transform="translate(82,163)"/>
<path d="M0 0 C2.475 0.495 2.475 0.495 5 1 C5 1.66 5 2.32 5 3 C5.66 3.33 6.32 3.66 7 4 C5.35 4.33 3.7 4.66 2 5 C1.34 3.35 0.68 1.7 0 0 Z " fill="#92C24E" transform="translate(23,144)"/>
<path d="M0 0 C2.875 -0.125 2.875 -0.125 6 0 C6.66 0.66 7.32 1.32 8 2 C7.625 4.125 7.625 4.125 7 6 C6.34 5.01 5.68 4.02 5 3 C2.44816596 1.79549696 2.44816596 1.79549696 0 1 C0 0.67 0 0.34 0 0 Z " fill="#686B65" transform="translate(16,41)"/>
<path d="M0 0 C1.16945792 0.80847729 2.33550461 1.62189112 3.5 2.4375 C4.47453125 3.11619141 4.47453125 3.11619141 5.46875 3.80859375 C5.9740625 4.20175781 6.479375 4.59492188 7 5 C7 5.33 7 5.66 7 6 C5.35 6 3.7 6 2 6 C1.34 4.02 0.68 2.04 0 0 Z " fill="#061502" transform="translate(22,146)"/>
<path d="M0 0 C0.33 0 0.66 0 1 0 C1 3.3 1 6.6 1 10 C-1.63636364 4.72727273 -1.63636364 4.72727273 -2 2 C-1.34 1.34 -0.68 0.68 0 0 Z " fill="#020902" transform="translate(44,134)"/>
<path d="M0 0 C0 0.99 0 1.98 0 3 C-0.66 3.66 -1.32 4.32 -2 5 C-3.32 5 -4.64 5 -6 5 C-5.67 4.01 -5.34 3.02 -5 2 C-2.4375 0.8125 -2.4375 0.8125 0 0 Z " fill="#9BBB6B" transform="translate(34,35)"/>
</svg>
